<?xml version="1.0" encoding="UTF-8" standalone="no"?>
<!DOCTYPE svg PUBLIC "-//W3C//DTD SVG 1.1//EN"
 "http://www.w3.org/Graphics/SVG/1.1/DTD/svg11.dtd">
<!-- Generated by graphviz version 2.40.1 (20161225.0304)
 -->
<!-- Title: %3 Pages: 1 -->
<svg width="624pt" height="355pt"
 viewBox="0.00 0.00 623.83 355.00" xmlns="http://www.w3.org/2000/svg" xmlns:xlink="http://www.w3.org/1999/xlink">
<g id="graph0" class="graph" transform="scale(1 1) rotate(0) translate(4 351)">
<title>%3</title>
<polygon fill="#333333" stroke="transparent" points="-4,4 -4,-351 619.8327,-351 619.8327,4 -4,4"/>
<text text-anchor="middle" x="307.9164" y="-9.2" font-family="Times,serif" font-size="16.00" fill="#ffffff">Network Map</text>
<!-- R3 -->
<g id="node1" class="node">
<title>R3</title>
<polygon fill="#006699" stroke="#006699" points="206.8327,-223 130.8327,-223 130.8327,-150 206.8327,-150 206.8327,-223"/>
<text text-anchor="middle" x="168.8327" y="-182.8" font-family="Helvetica,sans-Serif" font-size="14.00" fill="#ffffff">R3</text>
</g>
<!-- R4 -->
<g id="node2" class="node">
<title>R4</title>
<polygon fill="#006699" stroke="#006699" points="83.8327,-347 7.8327,-347 7.8327,-274 83.8327,-274 83.8327,-347"/>
<text text-anchor="middle" x="45.8327" y="-306.8" font-family="Helvetica,sans-Serif" font-size="14.00" fill="#ffffff">R4</text>
</g>
<!-- R3&#45;&#45;R4 -->
<g id="edge6" class="edge">
<title>R3&#45;&#45;R4</title>
<path fill="none" stroke="#00ff00" stroke-dasharray="5,2" d="M130.633,-197.9103C108.4122,-206.4102 81.5715,-220.1937 64.8327,-241 57.3055,-250.3564 52.7518,-262.4689 50,-273.9547"/>
<text text-anchor="middle" x="114.8327" y="-244.8" font-family="Courier,monospace" font-size="14.00" fill="#ffffff"> &#160;&#160;&#160;&#160;&#160;&#160;&#160;&#160;&#160;&#160;&#160;</text>
<text text-anchor="middle" x="25" y="-262.7547" font-family="Courier,monospace" font-size="14.00" fill="#ffffff">Eth0/0</text>
<text text-anchor="middle" x="105.633" y="-186.7103" font-family="Courier,monospace" font-size="14.00" fill="#ffffff">Eth0/1</text>
</g>
<!-- R5 -->
<g id="node6" class="node">
<title>R5</title>
<polygon fill="#006699" stroke="#006699" points="206.8327,-347 130.8327,-347 130.8327,-274 206.8327,-274 206.8327,-347"/>
<text text-anchor="middle" x="168.8327" y="-306.8" font-family="Helvetica,sans-Serif" font-size="14.00" fill="#ffffff">R5</text>
</g>
<!-- R3&#45;&#45;R5 -->
<g id="edge7" class="edge">
<title>R3&#45;&#45;R5</title>
<path fill="none" stroke="#00ff00" stroke-dasharray="5,2" d="M168.8327,-223.0334C168.8327,-239.0358 168.8327,-257.7778 168.8327,-273.7992"/>
<text text-anchor="middle" x="218.8327" y="-244.8" font-family="Courier,monospace" font-size="14.00" fill="#ffffff"> &#160;&#160;&#160;&#160;&#160;&#160;&#160;&#160;&#160;&#160;&#160;</text>
<text text-anchor="middle" x="143.8327" y="-262.5992" font-family="Courier,monospace" font-size="14.00" fill="#ffffff">Eth0/0</text>
<text text-anchor="middle" x="143.8327" y="-226.8334" font-family="Courier,monospace" font-size="14.00" fill="#ffffff">Eth0/2</text>
</g>
<!-- R2 -->
<g id="node3" class="node">
<title>R2</title>
<polygon fill="#006699" stroke="#006699" points="329.8327,-223 253.8327,-223 253.8327,-150 329.8327,-150 329.8327,-223"/>
<text text-anchor="middle" x="291.8327" y="-182.8" font-family="Helvetica,sans-Serif" font-size="14.00" fill="#ffffff">R2</text>
</g>
<!-- SW2 -->
<g id="node4" class="node">
<title>SW2</title>
<polygon fill="#006699" stroke="#006699" points="336.3327,-347 247.3327,-347 247.3327,-274 336.3327,-274 336.3327,-347"/>
<text text-anchor="middle" x="291.8327" y="-306.8" font-family="Helvetica,sans-Serif" font-size="14.00" fill="#ffffff">SW2</text>
</g>
<!-- R2&#45;&#45;SW2 -->
<g id="edge5" class="edge">
<title>R2&#45;&#45;SW2</title>
<path fill="none" stroke="#00ff00" stroke-dasharray="5,2" d="M291.8327,-223.0334C291.8327,-239.0358 291.8327,-257.7778 291.8327,-273.7992"/>
<text text-anchor="middle" x="341.8327" y="-244.8" font-family="Courier,monospace" font-size="14.00" fill="#ffffff"> &#160;&#160;&#160;&#160;&#160;&#160;&#160;&#160;&#160;&#160;&#160;</text>
<text text-anchor="middle" x="262.8327" y="-262.5992" font-family="Courier,monospace" font-size="14.00" fill="#ffffff">Eth0/11</text>
<text text-anchor="middle" x="266.8327" y="-226.8334" font-family="Courier,monospace" font-size="14.00" fill="#ffffff">Eth0/1</text>
</g>
<!-- R1 -->
<g id="node5" class="node">
<title>R1</title>
<polygon fill="#006699" stroke="#006699" points="452.8327,-223 376.8327,-223 376.8327,-150 452.8327,-150 452.8327,-223"/>
<text text-anchor="middle" x="414.8327" y="-182.8" font-family="Helvetica,sans-Serif" font-size="14.00" fill="#ffffff">R1</text>
</g>
<!-- SW1 -->
<g id="node7" class="node">
<title>SW1</title>
<polygon fill="#006699" stroke="#006699" points="397.3327,-99 308.3327,-99 308.3327,-26 397.3327,-26 397.3327,-99"/>
<text text-anchor="middle" x="352.8327" y="-58.8" font-family="Helvetica,sans-Serif" font-size="14.00" fill="#ffffff">SW1</text>
</g>
<!-- SW1&#45;&#45;R3 -->
<g id="edge3" class="edge">
<title>SW1&#45;&#45;R3</title>
<path fill="none" stroke="#00ff00" stroke-dasharray="5,2" d="M308.3008,-71.7407C264.4301,-81.7267 201.611,-98.6869 184.8327,-117 176.6358,-125.9467 172.37,-138.2285 170.2266,-149.9809"/>
<text text-anchor="middle" x="234.8327" y="-120.8" font-family="Courier,monospace" font-size="14.00" fill="#ffffff"> &#160;&#160;&#160;&#160;&#160;&#160;&#160;&#160;&#160;&#160;&#160;</text>
<text text-anchor="middle" x="145.2266" y="-138.7809" font-family="Courier,monospace" font-size="14.00" fill="#ffffff">Eth0/0</text>
<text text-anchor="middle" x="283.3008" y="-60.5407" font-family="Courier,monospace" font-size="14.00" fill="#ffffff">Eth0/3</text>
</g>
<!-- SW1&#45;&#45;R2 -->
<g id="edge2" class="edge">
<title>SW1&#45;&#45;R2</title>
<path fill="none" stroke="#00ff00" stroke-dasharray="5,2" d="M308.1632,-94.9436C301.9647,-101.5148 296.4792,-108.919 292.8327,-117 288.2664,-127.1193 286.853,-138.9413 286.9161,-149.9353"/>
<text text-anchor="middle" x="342.8327" y="-120.8" font-family="Courier,monospace" font-size="14.00" fill="#ffffff"> &#160;&#160;&#160;&#160;&#160;&#160;&#160;&#160;&#160;&#160;&#160;</text>
<text text-anchor="middle" x="261.9161" y="-138.7353" font-family="Courier,monospace" font-size="14.00" fill="#ffffff">Eth0/0</text>
<text text-anchor="middle" x="283.1632" y="-83.7436" font-family="Courier,monospace" font-size="14.00" fill="#ffffff">Eth0/2</text>
</g>
<!-- SW1&#45;&#45;R1 -->
<g id="edge1" class="edge">
<title>SW1&#45;&#45;R1</title>
<path fill="none" stroke="#00ff00" stroke-dasharray="5,2" d="M382.2759,-99.2843C386.1407,-105.0244 389.8038,-111.035 392.8327,-117 398.0471,-127.269 402.3343,-139.0192 405.6946,-149.9001"/>
<text text-anchor="middle" x="449.8327" y="-120.8" font-family="Courier,monospace" font-size="14.00" fill="#ffffff"> &#160;&#160;&#160;&#160;&#160;&#160;&#160;&#160;&#160;&#160;&#160;</text>
<text text-anchor="middle" x="380.6946" y="-138.7001" font-family="Courier,monospace" font-size="14.00" fill="#ffffff">Eth0/0</text>
<text text-anchor="middle" x="357.2759" y="-103.0843" font-family="Courier,monospace" font-size="14.00" fill="#ffffff">Eth0/1</text>
</g>
<!-- R6 -->
<g id="node8" class="node">
<title>R6</title>
<polygon fill="#006699" stroke="#006699" points="575.8327,-223 499.8327,-223 499.8327,-150 575.8327,-150 575.8327,-223"/>
<text text-anchor="middle" x="537.8327" y="-182.8" font-family="Helvetica,sans-Serif" font-size="14.00" fill="#ffffff">R6</text>
</g>
<!-- SW1&#45;&#45;R6 -->
<g id="edge4" class="edge">
<title>SW1&#45;&#45;R6</title>
<path fill="none" stroke="#00ff00" stroke-dasharray="5,2" d="M397.4365,-69.3536C430.2186,-76.4054 474.0593,-90.2964 503.8327,-117 513.6324,-125.7893 520.9117,-138.0342 526.1643,-149.801"/>
<text text-anchor="middle" x="565.8327" y="-120.8" font-family="Courier,monospace" font-size="14.00" fill="#ffffff"> &#160;&#160;&#160;&#160;&#160;&#160;&#160;&#160;&#160;&#160;&#160;</text>
<text text-anchor="middle" x="501.1643" y="-138.601" font-family="Courier,monospace" font-size="14.00" fill="#ffffff">Eth0/1</text>
<text text-anchor="middle" x="422.4365" y="-58.1536" font-family="Courier,monospace" font-size="14.00" fill="#ffffff">Eth0/5</text>
</g>
</g>
</svg>
